<svg xmlns="http://www.w3.org/2000/svg" xmlns:xlink="http://www.w3.org/1999/xlink" x="0px" y="0px" viewBox="0 0 512 512" style="enable-background:new 0 0 512 512;" xml:space="preserve">
<style type="text/css">
	.st0{fill:none;stroke:#000000;stroke-width:26.9231;stroke-linecap:round;stroke-linejoin:round;}
	.st1{fill:none;stroke:#000000;stroke-width:16.1538;stroke-linecap:round;stroke-linejoin:round;}
</style>
<g id="Layer_1">
</g>
<g id="svg8">
</g>
<g id="Truck">
</g>
<g id="Marine">
</g>
<g id="Car">
</g>
<g id="Agri">
</g>
<g id="Bike">
</g>
<g id="Livello_4">
</g>
<g id="Livello_3">
</g>
<g id="Livello_1">
	<g>
		<path d="M391.52,234.69l-18.07-34.3C363.02,181.03,343.26,169,321.89,169h-73c-13.27,0-26.06,4.6-35.99,12.95l-0.42,0.41    l-44.63,35.55l-10.04,1.76c-25.67,7.17-43.31,30.15-43.31,56.02v32.57h39.16l0.46,1.63c5.41,18.9,22.75,32.11,42.16,32.11    c19.58,0,37.05-13.2,42.48-32.11l0.46-1.63h45.92l0.46,1.63c5.41,18.9,22.75,32.11,42.16,32.11c19.58,0,37.05-13.2,42.48-32.11    l0.47-1.63h26.8v-46.79c0-9.59-1.93-18.33-5.75-25.95L391.52,234.69z M196.28,323.27c-14.28,0-25.47-11.19-25.47-25.47    s11.19-25.46,25.47-25.46c14.28,0,25.46,11.18,25.46,25.46S210.56,323.27,196.28,323.27z M327.76,323.27    c-14.28,0-25.47-11.19-25.47-25.47s11.19-25.46,25.47-25.46s25.46,11.18,25.46,25.46S342.04,323.27,327.76,323.27z M225.87,196.42    c6.25-5.13,14.39-7.95,23.01-7.95h73c13.77,0,27.65,8.44,34.54,21l0.28,0.9l17.72,33.95c2.54,5.09,3.62,10.21,3.62,17.14v27.33    h-6.23l-0.44-1.68c-5.3-20.17-23.19-34.26-43.5-34.26c-20.31,0-38.19,14.09-43.5,34.26l-0.44,1.68h-43.9l-0.44-1.68    c-5.3-20.17-23.19-34.26-43.5-34.26c-20.31,0-38.19,14.09-43.5,34.26l-0.44,1.68h-18.2v-13.1c0-16.92,11.23-31.64,28.01-36.81    l0.07-0.07l1.03-0.51l13.37-2.57l1.74-1.45l45.99-36.43L225.87,196.42z"></path>
	</g>
</g>
</svg>